<?xml version="1.0" encoding="UTF-8"?>
<!DOCTYPE svg PUBLIC "-//W3C//DTD SVG 1.1//EN" "http://www.w3.org/Graphics/SVG/1.1/DTD/svg11.dtd">
<svg version="1.1" xmlns="http://www.w3.org/2000/svg" xmlns:xlink="http://www.w3.org/1999/xlink" x="0" y="0" width="437.76" height="437.76" viewBox="0, 0, 256, 256">
  <defs>
    <clipPath id="Clip_1">
      <path d="M0,0 L256,0 L256,256 L0,256 z"/>
    </clipPath>
  </defs>
  <g id="Layer_1">
    <g clip-path="url(#Clip_1)">
      <path d="M35.719,60.705 C53.694,36.056 80.192,19.882 110.331,15.164 C116.316,14.227 122.299,13.764 128.242,13.764 C152.233,13.764 175.538,21.313 195.293,35.719 C218.718,52.802 234.482,77.584 240.04,105.872 C236.295,105.774 232.689,105.779 229.224,105.87 L229.224,84.654 C229.224,80.855 226.144,77.774 222.344,77.774 C218.544,77.774 215.464,80.855 215.464,84.654 L215.464,106.726 C214.739,106.798 214.023,106.875 213.313,106.954 L213.313,88.095 C213.313,84.296 210.233,81.215 206.433,81.215 C202.633,81.215 199.553,84.296 199.553,88.095 L199.553,109.063 C184.673,111.996 174.799,116.181 170.14,118.475 L170.14,96.964 L170.165,96.973 C170.919,97.237 171.687,97.363 172.444,97.363 C175.283,97.362 177.942,95.591 178.936,92.76 C180.194,89.175 178.308,85.247 174.722,83.989 L86.126,52.886 C84.445,52.296 82.599,52.381 80.979,53.125 L35.649,73.915 C32.196,75.499 30.68,79.583 32.264,83.037 C33.504,85.739 36.274,87.246 39.074,87.02 L39.074,114.423 C31.021,115.177 22.748,116.133 14.245,117.33 C16.11,97.054 23.41,77.584 35.719,60.705 z" fill="#37B7EA"/>
      <path d="M254.431,108.203 C249.143,74.432 231.021,44.742 203.402,24.602 C175.783,4.461 141.973,-3.72 108.203,1.569 C74.432,6.857 44.742,24.979 24.601,52.598 C4.461,80.217 -3.719,114.026 1.569,147.797 C6.857,181.568 24.979,211.258 52.598,231.398 C74.735,247.541 100.844,256 127.727,256 C134.384,256 141.093,255.481 147.796,254.431 C181.567,249.143 211.258,231.021 231.398,203.402 C251.539,175.783 259.719,141.974 254.431,108.203 z M231.688,175.964 C223.133,171.455 205.114,163.044 177.99,155.784 C143.854,146.647 88.249,137.744 15.253,146.198 C15.224,146.021 15.191,145.845 15.163,145.668 C14.412,140.87 13.968,136.071 13.821,131.295 C22.479,130.036 30.896,129.03 39.073,128.243 L39.073,131.44 C39.073,135.239 42.153,138.32 45.953,138.32 L163.261,138.32 C166.027,138.32 168.406,136.684 169.498,134.329 C174.032,135.285 178.306,136.275 182.281,137.278 C211.363,144.612 230.359,153.639 238.3,157.856 C236.621,164.049 234.414,170.104 231.688,175.964 z M213.522,203.706 C201.819,198.094 181.151,189.625 152.054,183.065 C112.382,174.12 69.243,171.338 23.761,174.784 C21.586,169.918 19.746,164.883 18.261,159.705 C88.037,151.819 141.104,160.234 173.74,168.892 C199.807,175.808 217.197,183.928 225.137,188.084 C223.616,190.534 221.998,192.94 220.281,195.295 C218.147,198.221 215.889,201.023 213.522,203.706 z M183.897,227.658 C183.572,227.471 183.232,227.301 182.868,227.165 C153.452,216.179 105.317,203.278 42.707,204.002 C38.267,199.038 34.289,193.717 30.808,188.088 C119.139,182.498 178.115,202.875 203.139,214.067 C197.199,219.274 190.752,223.818 183.897,227.658 z M52.834,86.772 L116.242,86.772 L116.242,124.56 L86.948,124.56 L86.948,116.763 C86.948,112.964 83.867,109.883 80.067,109.883 C76.268,109.883 73.187,112.964 73.187,116.763 L73.187,124.56 L52.834,124.56 L52.834,86.772 z M156.38,92.133 L156.38,124.56 L130.002,124.56 L130.002,87.854 L130.002,82.874 L148.308,89.3 L156.38,92.133 z M70.629,73.011 L84.189,66.792 L101.907,73.011 L70.629,73.011 z M190.982,125.331 C202.39,122.028 219.496,118.887 241.911,119.706 C242.515,127.824 242.261,135.904 241.162,143.833 C231.804,139.148 214.99,131.797 190.982,125.331 z M35.719,60.706 C53.694,36.057 80.192,19.883 110.331,15.165 C116.316,14.228 122.299,13.765 128.243,13.765 C152.233,13.765 175.538,21.314 195.293,35.72 C218.718,52.803 234.482,77.585 240.04,105.873 C236.295,105.775 232.689,105.779 229.224,105.871 L229.224,84.655 C229.224,80.856 226.144,77.775 222.344,77.775 C218.544,77.775 215.464,80.856 215.464,84.655 L215.464,106.727 C214.739,106.799 214.023,106.875 213.313,106.955 L213.313,88.096 C213.313,84.297 210.233,81.216 206.433,81.216 C202.633,81.216 199.553,84.297 199.553,88.096 L199.553,109.064 C184.673,111.997 174.799,116.182 170.14,118.476 L170.14,96.965 L170.165,96.974 C170.919,97.238 171.687,97.364 172.444,97.364 C175.283,97.363 177.942,95.592 178.936,92.761 C180.194,89.176 178.308,85.248 174.722,83.99 L86.126,52.887 C84.445,52.297 82.599,52.382 80.979,53.125 L35.65,73.916 C32.196,75.5 30.68,79.584 32.265,83.038 C33.504,85.74 36.274,87.247 39.074,87.021 L39.074,114.424 C31.021,115.178 22.749,116.133 14.245,117.331 C16.11,97.055 23.41,77.585 35.719,60.706 z M145.668,240.836 C115.529,245.558 85.355,238.256 60.706,220.281 C59.619,219.488 58.554,218.673 57.5,217.847 C103.15,218.914 139.896,227.305 165.836,235.787 C159.345,238.05 152.605,239.75 145.668,240.836 z" fill="#233644"/>
      <path d="M183.897,227.657 C183.572,227.47 183.232,227.3 182.869,227.164 C153.452,216.178 105.317,203.277 42.707,204.001 C38.267,199.038 34.289,193.716 30.808,188.088 C119.139,182.498 178.115,202.874 203.139,214.066 C197.199,219.273 190.752,223.817 183.897,227.657 z" fill="#37EAAE"/>
      <path d="M52.834,86.771 L116.242,86.771 L116.242,124.56 L86.948,124.56 L86.948,116.762 C86.948,112.963 83.867,109.882 80.067,109.882 C76.268,109.882 73.187,112.963 73.187,116.762 L73.187,124.56 L52.834,124.56 L52.834,86.771 z" fill="#E6EAEE"/>
      <path d="M156.381,92.133 L156.381,124.56 L130.003,124.56 L130.003,87.853 L130.003,82.873 L148.308,89.299 L156.381,92.133 z" fill="#E6EAEE"/>
      <path d="M70.629,73.011 L84.189,66.791 L101.907,73.011 L70.629,73.011 z" fill="#E6EAEE"/>
      <path d="M190.982,125.332 C202.39,122.029 219.496,118.888 241.911,119.708 C242.515,127.826 242.261,135.905 241.162,143.835 C231.804,139.149 214.99,131.798 190.982,125.332 z" fill="#25B282"/>
      <path d="M213.522,203.706 C201.819,198.094 181.151,189.626 152.054,183.065 C112.382,174.12 69.243,171.338 23.761,174.784 C21.586,169.918 19.746,164.883 18.261,159.705 C88.037,151.819 141.104,160.234 173.74,168.892 C199.807,175.808 217.197,183.928 225.137,188.084 C223.616,190.535 221.998,192.941 220.281,195.295 C218.147,198.221 215.889,201.024 213.522,203.706 z" fill="#25B282"/>
      <path d="M145.668,240.836 C115.529,245.558 85.355,238.256 60.706,220.281 C59.619,219.489 58.554,218.673 57.5,217.847 C103.15,218.915 139.896,227.306 165.836,235.787 C159.345,238.05 152.605,239.75 145.668,240.836 z" fill="#25B282"/>
      <path d="M231.688,175.966 C223.133,171.457 205.114,163.046 177.99,155.786 C143.854,146.649 88.249,137.746 15.252,146.2 C15.224,146.023 15.191,145.847 15.163,145.67 C14.412,140.872 13.968,136.073 13.821,131.296 C22.479,130.037 30.896,129.032 39.073,128.245 L39.073,131.442 C39.073,135.241 42.153,138.322 45.953,138.322 L163.261,138.322 C166.027,138.322 168.406,136.686 169.498,134.331 C174.032,135.287 178.306,136.277 182.281,137.279 C211.363,144.614 230.359,153.641 238.3,157.857 C236.621,164.051 234.414,170.106 231.688,175.966 z" fill="#37EAAE"/>
      <g>
        <path d="M199.071,240.141 C223.41,240.141 243.141,220.41 243.141,196.071 C243.141,171.731 223.41,152 199.071,152 C174.731,152 155,171.731 155,196.071 C155,220.41 174.731,240.141 199.071,240.141 z" fill="#0052B4"/>
        <path d="M199.071,240.141 C223.41,240.141 243.141,220.41 243.141,196.071 C243.141,171.731 223.41,152 199.071,152 C174.731,152 155,171.731 155,196.071 C155,220.41 174.731,240.141 199.071,240.141 z" fill-opacity="0" stroke="#233644" stroke-width="10"/>
      </g>
      <path d="M199.418,169.87 L200.83,174.216 L205.399,174.216 L201.703,176.902 L203.115,181.248 L199.418,178.562 L195.721,181.248 L197.133,176.902 L193.436,174.216 L198.006,174.216 L199.418,169.87 z" fill="#FFDA44"/>
      <path d="M180.646,177.646 L184.717,179.72 L187.948,176.489 L187.233,181.002 L191.305,183.077 L186.792,183.792 L186.077,188.305 L184.002,184.233 L179.489,184.948 L182.72,181.717 L180.646,177.646 z" fill="#FFDA44"/>
      <path d="M172.87,196.418 L177.216,195.006 L177.216,190.437 L179.902,194.133 L184.248,192.721 L181.562,196.418 L184.248,200.115 L179.902,198.703 L177.216,202.4 L177.216,197.83 L172.87,196.418 z" fill="#FFDA44"/>
      <path d="M180.646,215.189 L182.72,211.118 L179.489,207.887 L184.002,208.602 L186.077,204.53 L186.792,209.043 L191.305,209.758 L187.234,211.833 L187.948,216.346 L184.717,213.115 L180.646,215.189 z" fill="#FFDA44"/>
      <path d="M199.418,222.965 L198.006,218.619 L193.436,218.619 L197.133,215.933 L195.721,211.588 L199.418,214.274 L203.115,211.588 L201.703,215.933 L205.399,218.619 L200.83,218.619 L199.418,222.965 z" fill="#FFDA44"/>
      <path d="M218.19,215.189 L214.118,213.115 L210.887,216.346 L211.602,211.833 L207.531,209.758 L212.044,209.043 L212.759,204.53 L214.833,208.602 L219.346,207.887 L216.115,211.118 L218.19,215.189 z" fill="#FFDA44"/>
      <path d="M225.965,196.418 L221.619,197.83 L221.619,202.4 L218.933,198.703 L214.588,200.115 L217.274,196.418 L214.588,192.721 L218.934,194.133 L221.619,190.437 L221.619,195.006 L225.965,196.418 z" fill="#FFDA44"/>
      <path d="M218.19,177.646 L216.115,181.717 L219.346,184.948 L214.833,184.233 L212.759,188.305 L212.044,183.791 L207.531,183.076 L211.602,181.002 L210.887,176.489 L214.118,179.72 L218.19,177.646 z" fill="#FFDA44"/>
    </g>
  </g>
</svg>
